<svg xmlns="http://www.w3.org/2000/svg" width="880" height="430" viewBox="0 0 880 430" fill="none">
  <defs>
    <filter id="rough" x="-20%" y="-20%" width="140%" height="140%">
      <feTurbulence type="fractalNoise" baseFrequency="0.022 0.12" numOctaves="4" seed="23" />
      <feDisplacementMap in="SourceGraphic" scale="18" />
    </filter>
  </defs>
  <rect width="880" height="430" fill="#f3eadb" opacity="0" />
  <path d="M400 -40C477 46 565 80 690 82C780 84 842 132 900 214V-40H400Z" fill="#10110f" opacity="0.9" filter="url(#rough)" />
  <path d="M502 124C600 136 698 112 884 52V242C748 302 626 312 502 248V124Z" fill="#1a1b17" opacity="0.78" filter="url(#rough)" />
  <path d="M610 266C688 242 773 238 900 296V430H560C548 356 558 304 610 266Z" fill="#090b0a" opacity="0.72" filter="url(#rough)" />
  <path d="M536 78H728M632 -20V210M590 168H780M688 80V270" stroke="#b78334" stroke-opacity="0.3" />
  <path d="M0 116H880M0 244H880M0 372H880M132 0V430M264 0V430M396 0V430M528 0V430M660 0V430M792 0V430" stroke="#100f0e" stroke-opacity="0.055" />
</svg>
